PathFileType	4	(X/Y/Z)	..\data\2015002\dynamic\2015002_C4_04.trc
DataRate	CameraRate	NumFrames	NumMarkers	Units	OrigDataRate	OrigDataStartFrame	OrigNumFrames
100.000000	100.000000	4	52	mm	100.000000	21	168
Frame#	Time	L_IAS			L_IPS			R_IPS			R_IAS			L_FTC			L_FLE			L_FME			L_FAX			L_TTC			L_FAL			L_TAM			L_FCC			L_FM1			L_FM2			L_FM5			R_FTC			R_FLE			R_FME			R_FAX			R_TTC			R_FAL			R_TAM			R_FCC			R_FM1			R_FM2			R_FM5			CV7			TV10			SXS			SJN			L_SIA			L_SRS			L_SAA			L_SAE			L_HLE			L_HME			L_UOA			L_RSP			L_UHE			L_HM2			L_HM5			R_SIA			R_SRS			R_SAA			R_SAE			R_HLE			R_HME			R_UOA			R_RSP			R_UHE			R_HM2			R_HM5			
		X1	Y1	Z1	X2	Y2	Z2	X3	Y3	Z3	X4	Y4	Z4	X5	Y5	Z5	X6	Y6	Z6	X7	Y7	Z7	X8	Y8	Z8	X9	Y9	Z9	X10	Y10	Z10	X11	Y11	Z11	X12	Y12	Z12	X13	Y13	Z13	X14	Y14	Z14	X15	Y15	Z15	X16	Y16	Z16	X17	Y17	Z17	X18	Y18	Z18	X19	Y19	Z19	X20	Y20	Z20	X21	Y21	Z21	X22	Y22	Z22	X23	Y23	Z23	X24	Y24	Z24	X25	Y25	Z25	X26	Y26	Z26	X27	Y27	Z27	X28	Y28	Z28	X29	Y29	Z29	X30	Y30	Z30	X31	Y31	Z31	X32	Y32	Z32	X33	Y33	Z33	X34	Y34	Z34	X35	Y35	Z35	X36	Y36	Z36	X37	Y37	Z37	X38	Y38	Z38	X39	Y39	Z39	X40	Y40	Z40	X41	Y41	Z41	X42	Y42	Z42	X43	Y43	Z43	X44	Y44	Z44	X45	Y45	Z45	X46	Y46	Z46	X47	Y47	Z47	X48	Y48	Z48	X49	Y49	Z49	X50	Y50	Z50	X51	Y51	Z51	X52	Y52	Z52	

22	0.21	5.680055618286134	971.777770996094	-405.0761718750001	-184.646469116211	966.7824707031252	-319.0072631835938	-179.3761596679688	958.939636230469	-216.8179321289063	10.36225700378418	946.2003173828127	-152.7176818847657	-51.72711563110353	897.7652587890627	-479.0122375488282	91.03142547607423	488.8554687500001	-443.4623107910157	88.24861907958986	487.8078002929689	-310.0793457031251	76.73598480224611	421.8076171875001	-440.7883300781251	138.6417541503907	417.7581481933595	-382.3428649902344	63.84050750732423	68.03005981445314	-387.8150634765626	89.63549041748048	89.09095764160158	-298.2732849121094	6.057835102081301	18.80682182312012	-319.2181396484376	217.6617736816407	20.53237342834473	-301.9910583496094	220.0258026123047	38.35000228881837	-362.3464355468751	174.5527648925782	18.74215888977051	-420.0529174804689	-60.06314086914064	840.1604614257815	-92.37761688232423	-113.3402328491211	439.5271606445314	-115.1280899047852	-68.71905517578126	415.9024353027345	-239.3224334716797	-162.2076721191407	412.3686828613282	-119.7375869750977	-109.8693923950196	352.4481506347657	-156.4825286865235	-447.8236389160157	230.5783996582032	-207.1208190917969	-394.7666625976564	200.7322692871094	-281.7215270996094	-490.8058471679689	242.3328399658204	-284.0467529296876	-416.2599487304689	53.92599868774415	-272.3632812500001	-403.5519104003907	63.44504547119142	-213.9969787597657	-458.8895568847657	102.1583862304688	-165.9690551757813	-121.0618362426758	1452.753173828125	-298.1428222656251	-206.2925262451172	1203.468139648438	-264.1322326660157	49.05989456176759	1153.183837890625	-286.4313964843751	-3.140457630157472	1356.529663085938	-300.7893981933594	-222.6796875000001	1217.675415039063	-371.8860778808594	-190.92333984375	1374.96337890625	-366.9087524414063	-153.339828491211	1374.390869140625	-463.3785705566407	-109.4349060058594	1357.614013671875	-499.6407165527345	-201.6326446533204	1058.760498046875	-513.3543090820314	-213.7431793212891	1053.392211914063	-429.0298767089845	-237.2008361816407	1032.147583007813	-493.0332031250001	-134.7897644042969	801.9719848632815	-508.7810668945314	-199.604965209961	812.936462402344	-551.5485229492189	-135.30517578125	696.0437011718751	-511.5448303222657	-226.4014739990235	734.1633911132814	-552.1152954101564	-193.0275115966797	1236.297729492188	-141.4959716796875	-164.9414215087891	1384.890502929688	-176.2202911376953	-97.22161102294925	1396.086181640625	-102.9976882934571	-49.8623733520508	1397.481567382813	-89.67005920410158	-7.709251403808596	1089.240844726563	-7.648136138916017	-51.1676712036133	1062.420288085938	-87.56456756591798	-38.17607879638673	1026.625854492188	-27.54187011718751	174.3340148925782	923.959899902344	-114.0148468017578	152.6945190429688	892.5960693359377	-46.45402145385743	259.4400939941407	864.6423339843752	-121.0384368896485	192.5547180175782	821.5159912109377	-52.61499023437501	
23	0.22	18.61549377441407	973.3682250976565	-405.2801513671876	-172.1844635009766	969.0332641601565	-319.9962158203126	-167.3736267089844	960.552917480469	-217.9493408203126	22.18419647216797	948.5032958984377	-152.8278503417969	-39.29923629760743	899.2250976562502	-479.3889770507814	97.07439422607425	488.2480468750001	-442.3669738769532	93.6038284301758	487.5766601562501	-308.7279357910157	81.69106292724611	421.5142822265626	-439.5628356933595	143.5662841796875	416.7505187988282	-380.6128540039063	64.54091644287111	68.28712463378908	-386.776824951172	90.18822479248048	88.66530609130861	-296.9592285156251	6.42055130004883	18.83275222778321	-318.7749633789063	218.0433044433594	19.96870231628418	-301.4688415527344	220.8973541259766	38.18691635131837	-361.8547668457032	174.7535705566407	19.26566696166993	-419.9931945800782	-46.76088333129884	841.5041503906252	-93.24171447753908	-87.94409942626955	440.2785644531251	-112.8188934326172	-41.94768905639649	416.8936767578126	-236.9729766845704	-136.2545776367188	414.0668334960939	-117.3297119140625	-84.10630798339845	353.3395385742188	-154.2107696533203	-424.5548706054689	238.5067596435547	-206.2874145507813	-371.4556884765626	206.680892944336	-280.3331298828126	-466.9297790527345	250.0656890869141	-283.7067871093751	-396.1344299316407	59.79622268676759	-267.6412963867188	-383.3041687011719	69.50616455078126	-209.7538146972657	-438.0862121582032	111.725341796875	-163.0005035400391	-108.1070251464844	1454.998779296875	-298.6210021972657	-193.6476440429688	1205.682739257813	-265.4304504394532	61.7301368713379	1155.325927734375	-286.2817993164063	9.788422584533693	1358.666259765625	-300.7872314453126	-209.1453399658204	1220.032470703125	-373.8446960449219	-177.6147155761719	1377.33447265625	-367.9385375976563	-139.2031555175782	1376.736083984375	-464.3806762695314	-95.17031097412111	1359.940551757813	-500.1716918945314	-184.5338134765625	1060.004516601563	-514.3411865234376	-197.8178253173829	1054.8828125	-430.0853271484376	-219.9763183593751	1032.89892578125	-494.4171752929689	-113.7902908325196	804.1919555664065	-507.8503417968751	-178.4363708496094	813.902770996094	-551.2298583984376	-111.882568359375	698.4468383789064	-510.938201904297	-203.5673065185547	734.5371093750001	-552.1163940429689	-181.2135772705078	1238.221313476563	-142.8724212646485	-152.5565185546875	1386.958129882813	-177.0526275634766	-85.3502883911133	1397.942749023438	-103.5041198730469	-38.08320999145509	1399.203979492188	-89.76798248291017	1.477151036262512	1090.33154296875	-8.345287322998049	-42.67993545532227	1064.267700195313	-88.06455230712892	-30.87596702575684	1028.900756835938	-27.61196517944337	177.7092437744141	916.3887939453127	-110.8264312744141	155.0131072998047	887.3524169921877	-42.53910827636719	259.8060607910157	852.5506591796877	-117.11083984375	191.3012390136719	814.5443115234377	-47.19105911254884	
24	0.23	31.31485557556153	974.8655395507815	-405.3803710937501	-159.9745788574219	971.3666992187502	-320.9626159667969	-155.5889129638672	962.356140136719	-219.0795593261719	33.8009262084961	950.9673461914065	-152.7681732177735	-27.08740234375001	900.663513183594	-479.5939331054689	102.6593399047852	487.6495971679689	-441.2498779296876	98.52002716064456	487.3107299804689	-307.3993225097657	86.19536590576173	421.2089233398439	-438.3639221191407	148.0326080322266	415.759246826172	-378.9608154296876	65.09498596191408	68.4896926879883	-385.8050842285157	90.57051849365236	88.21817779541017	-295.7525329589844	6.64059352874756	18.84679603576661	-318.3287658691407	218.355941772461	19.52347183227539	-301.0294189453126	221.614974975586	38.03365707397462	-361.4147033691407	174.8616638183594	19.65007019042969	-419.8546142578126	-33.88695144653321	843.1550292968752	-94.04775238037111	-62.56095504760744	441.623992919922	-110.587646484375	-15.18614482879639	418.6221923828126	-234.6830444335938	-110.2523269653321	416.2178955078126	-115.0981216430664	-58.07002639770509	354.7699279785157	-152.091796875	-400.2641906738282	245.2554473876954	-205.2819213867188	-347.0812377929688	211.878158569336	-278.8440856933594	-442.3302001953126	256.0747680664063	-283.1214599609376	-373.2521972656251	64.99425506591798	-262.7985839843751	-360.3756103515626	75.27259826660158	-205.3564453125001	-414.8747863769532	120.1109161376953	-159.7999267578125	-95.24411010742189	1457.282348632813	-299.0120849609376	-181.1646881103516	1207.946533203125	-266.7823791503907	74.14306640625001	1157.380615234375	-286.0107727050782	22.61754226684571	1360.768676757813	-300.6290893554688	-195.7794799804688	1222.599731445313	-375.9752197265626	-164.3299713134766	1379.832763671875	-369.0130615234376	-125.0071563720703	1379.135864257813	-465.2872619628907	-80.73020935058595	1362.382568359375	-500.6346130371095	-167.1294860839844	1061.353759765625	-515.4594116210939	-181.7925109863282	1056.472534179688	-431.3235473632814	-202.4634094238282	1033.729370117188	-496.0000305175782	-92.40488433837892	806.6118774414065	-506.8211059570314	-156.7640838623047	815.036804199219	-550.9379882812501	-87.90960693359376	701.1417846679689	-510.2824096679689	-180.1370391845703	735.0703735351564	-552.1431884765626	-169.6833953857422	1240.170288085938	-144.3825378417969	-140.388412475586	1389.07177734375	-177.8699951171875	-73.69960784912111	1399.76025390625	-103.9371032714844	-26.5062656402588	1400.8525390625	-89.75177001953126	10.38668346405029	1091.367553710938	-9.051110267639162	-34.45494461059571	1066.064086914063	-88.56211090087892	-23.7596492767334	1031.211547851563	-27.72848320007325	180.4361114501953	908.9729003906252	-107.4002151489258	156.9283294677735	882.5108032226565	-38.32322692871094	259.2766723632813	840.8280029296877	-112.8509368896485	189.6455535888672	808.112731933594	-41.35555648803712	
25	0.24	43.78239440917969	976.3137817382815	-405.4004821777345	-147.9817047119141	973.7532958984377	-321.8609313964844	-143.9631958007813	964.3477172851565	-220.1502380371094	45.26041793823243	953.567321777344	-152.5776062011719	-15.09672737121582	902.0877075195315	-479.6411437988282	107.9011001586914	487.0961303710939	-440.1690673828126	103.0920944213867	487.0272827148439	-306.1693115234376	90.38101959228517	420.9212646484376	-437.2601928710939	152.1336364746094	414.801971435547	-377.4540405273438	65.5259475708008	68.64014434814455	-384.944061279297	90.78223419189455	87.77097320556642	-294.7032775878907	6.729722499847414	18.86174964904786	-317.9198608398438	218.599349975586	19.15071296691895	-300.6854248046876	222.1817932128907	37.85604858398438	-361.0472717285157	174.8905944824219	19.87690925598145	-419.6798095703126	-21.35163688659668	845.0999145507815	-94.77294921875001	-37.26591873168946	443.5327758789064	-108.4254150390625	11.4668083190918	421.0550231933595	-232.4298706054688	-84.30266571044923	418.7691040039064	-113.0243148803711	-31.82635688781739	356.7456359863282	-150.0903625488282	-375.0536193847657	250.6253356933594	-204.0469207763672	-321.7509460449219	216.1941223144532	-277.2216796875001	-417.1266479492189	260.2744750976563	-282.2150878906251	-347.7648315429688	69.33760070800783	-258.0375671386719	-334.9029541015626	80.48919677734376	-200.9946899414063	-389.4059143066407	126.9805068969727	-156.4766845703125	-82.47366333007814	1459.577880859375	-299.3111267089844	-168.8177337646485	1210.22412109375	-268.1530151367188	86.32621002197267	1159.347412109375	-285.6415100097657	35.35056304931641	1362.823120117188	-300.3289184570313	-182.5800476074219	1225.33837890625	-378.2139587402344	-151.0791168212891	1382.42041015625	-370.1063537597657	-110.796859741211	1381.562133789063	-466.0669860839845	-66.14257812500001	1364.919067382813	-501.0149841308595	-149.4213256835938	1062.792358398438	-516.7097167968751	-165.650863647461	1058.125	-432.756561279297	-184.6627349853516	1034.62109375	-497.779510498047	-70.6830520629883	809.214538574219	-505.6831054687501	-134.5940704345703	816.348571777344	-550.7010498046876	-63.48497390747072	704.1163940429689	-509.5373840332032	-156.1400299072266	735.7943115234376	-552.2279052734376	-158.389389038086	1242.148193359375	-145.9676513671875	-128.4037170410157	1391.216186523438	-178.6510925292969	-62.21647262573244	1401.534545898438	-104.2951049804688	-15.07938194274903	1402.421508789063	-89.6371536254883	18.97455024719239	1092.344848632813	-9.753293037414553	-26.49089431762696	1067.818359375	-89.0746536254883	-16.85212707519532	1033.5361328125	-27.90759658813477	182.5441589355469	901.8023071289065	-103.7452545166016	158.4637908935547	878.124450683594	-33.84434890747071	257.9279479980469	829.6131591796877	-108.2425689697266	187.6513671875	802.3018798828127	-35.14091110229493	
